<?xml version="1.0" encoding="UTF-8"?>
<svg width="1181px" height="1181px" viewBox="0 0 1181 1181" version="1.1" xmlns="http://www.w3.org/2000/svg" xmlns:xlink="http://www.w3.org/1999/xlink">
    <!-- Generator: Sketch 52.6 (67491) - http://www.bohemiancoding.com/sketch -->
    <title>Artboard</title>
    <desc>Created with Sketch.</desc>
    <g id="Artboard" stroke="none" stroke-width="1" fill="none" fill-rule="evenodd">
        <g id="Group" fill-rule="nonzero">
            <rect id="Rectangle" fill="#671386" x="0" y="0" width="1181" height="1181"></rect>
            <rect id="Rectangle" fill="#3DCAE4" x="0" y="0" width="1181" height="681"></rect>
            <polygon id="Path-2" fill="#FFA700" points="454 155 454 190 520 190 520 157"></polygon>
            <polygon id="Path-3" fill="#E89F16" points="519 142 519 202 630 202 628 142"></polygon>
            <polygon id="Path-5" fill="#E89F16" points="744 108 744 237 903 237 903 105"></polygon>
            <polygon id="Path-6" fill="#FFA700" points="903 89 903 251 1108 251 1108 89"></polygon>
            <polygon id="Path-7" fill="#4F4F4F" points="51 1201 568.075795 491 1130 1201"></polygon>
            <polygon id="Path-7" fill="#FFFFFF" points="360 776 568.075795 491 827 812"></polygon>
            <polygon id="Path-4" fill="#FFA700" points="623 126 628 220 746 220 746 126"></polygon>
            <path d="M338,133.18232 L401,112 L414,140.243094 L458,133.18232 L423,153.58011 C437.666667,204.313076 429.333333,231.771639 398,235.955801 C397.333333,239.616943 396.333333,243.278085 395,246.939227 L406,257.138122 L521,201.436464 L621,201.436464 L452,285.381215 L550,299.502762 L621,208.497238 L626,192.80663 L643,170.055249 L657,162.994475 L687,176.331492 L665,195.944751 L657,205.751381 L657,219.480663 L665,225.756906 L577,353.635359 L463,336.375691 C479,394.953959 477.333333,434.703499 458,455.624309 C474,477.06814 501.333333,514.202578 540,567.027624 L540,685.491713 L550,711.381215 L559,722.364641 L595,722.364641 L607,738.839779 L559,749.823204 L475,745.116022 L475,597.624309 L434,541.922652 L463,617.237569 L395,780.41989 L398,797.679558 L434,797.679558 L384,822 L309,797.679558 L331,771.005525 L309,766.298343 L378,617.237569 L354,524.662983 L325,541.922652 C343.666667,450.394107 341.666667,362.788214 319,279.104972 C331.666667,264.460405 348.666667,250.077348 370,235.955801 L378,225.756906 C361.333333,203.267035 355,184.699816 359,170.055249 C340.333333,173.19337 325.666667,175.285451 315,176.331492 L351,156.718232 L338,133.18232 Z" id="Path" fill="#000000"></path>
        </g>
    </g>
</svg>